<mxfile host="Electron" modified="2024-12-10T03:38:21.633Z" agent="Mozilla/5.0 (Macintosh; Intel Mac OS X 10_15_7) AppleWebKit/537.36 (KHTML, like Gecko) draw.io/22.1.21 Chrome/120.0.6099.109 Electron/28.1.0 Safari/537.36" etag="v5aJRr6a6NjxQ03RDlZB" version="22.1.21" type="device">
  <diagram name="第 1 页" id="6HqXooCNs9hSZixjxbYp">
    <mxGraphModel dx="795" dy="312" grid="0" gridSize="10" guides="1" tooltips="1" connect="1" arrows="1" fold="1" page="0" pageScale="1" pageWidth="827" pageHeight="1169" math="0" shadow="0">
      <root>
        <mxCell id="0" />
        <mxCell id="1" parent="0" />
        <mxCell id="osnXjKtBxEo1k38KJEpU-1" value="0" style="rounded=0;whiteSpace=wrap;html=1;" vertex="1" parent="1">
          <mxGeometry x="462" y="634" width="40" height="40" as="geometry" />
        </mxCell>
        <mxCell id="osnXjKtBxEo1k38KJEpU-2" value="0" style="rounded=0;whiteSpace=wrap;html=1;" vertex="1" parent="1">
          <mxGeometry x="401" y="634" width="40" height="40" as="geometry" />
        </mxCell>
        <mxCell id="osnXjKtBxEo1k38KJEpU-3" value="0" style="rounded=0;whiteSpace=wrap;html=1;" vertex="1" parent="1">
          <mxGeometry x="523" y="634" width="40" height="40" as="geometry" />
        </mxCell>
        <mxCell id="osnXjKtBxEo1k38KJEpU-4" value="1" style="rounded=0;whiteSpace=wrap;html=1;" vertex="1" parent="1">
          <mxGeometry x="583" y="634" width="40" height="40" as="geometry" />
        </mxCell>
        <mxCell id="osnXjKtBxEo1k38KJEpU-5" value="2" style="rounded=0;whiteSpace=wrap;html=1;" vertex="1" parent="1">
          <mxGeometry x="644" y="634" width="40" height="40" as="geometry" />
        </mxCell>
        <mxCell id="osnXjKtBxEo1k38KJEpU-7" value="4" style="rounded=0;whiteSpace=wrap;html=1;" vertex="1" parent="1">
          <mxGeometry x="766" y="634" width="40" height="40" as="geometry" />
        </mxCell>
        <mxCell id="osnXjKtBxEo1k38KJEpU-8" value="3" style="rounded=0;whiteSpace=wrap;html=1;" vertex="1" parent="1">
          <mxGeometry x="705" y="634" width="40" height="40" as="geometry" />
        </mxCell>
        <mxCell id="osnXjKtBxEo1k38KJEpU-9" value="5" style="rounded=0;whiteSpace=wrap;html=1;" vertex="1" parent="1">
          <mxGeometry x="827" y="634" width="40" height="40" as="geometry" />
        </mxCell>
        <mxCell id="osnXjKtBxEo1k38KJEpU-10" value="6" style="rounded=0;whiteSpace=wrap;html=1;" vertex="1" parent="1">
          <mxGeometry x="887" y="634" width="40" height="40" as="geometry" />
        </mxCell>
        <mxCell id="osnXjKtBxEo1k38KJEpU-11" value="." style="rounded=0;whiteSpace=wrap;html=1;" vertex="1" parent="1">
          <mxGeometry x="948" y="634" width="40" height="40" as="geometry" />
        </mxCell>
        <mxCell id="osnXjKtBxEo1k38KJEpU-12" value="9" style="rounded=0;whiteSpace=wrap;html=1;" vertex="1" parent="1">
          <mxGeometry x="1070" y="634" width="40" height="40" as="geometry" />
        </mxCell>
        <mxCell id="osnXjKtBxEo1k38KJEpU-13" value="9" style="rounded=0;whiteSpace=wrap;html=1;" vertex="1" parent="1">
          <mxGeometry x="1009" y="634" width="40" height="40" as="geometry" />
        </mxCell>
        <mxCell id="osnXjKtBxEo1k38KJEpU-17" value="0" style="rounded=0;whiteSpace=wrap;html=1;fillColor=#f5f5f5;strokeColor=#666666;fontColor=#333333;gradientColor=default;" vertex="1" parent="1">
          <mxGeometry x="461" y="720" width="40" height="40" as="geometry" />
        </mxCell>
        <mxCell id="osnXjKtBxEo1k38KJEpU-18" value="0" style="rounded=0;whiteSpace=wrap;html=1;fillColor=#f5f5f5;strokeColor=#666666;fontColor=#333333;gradientColor=default;" vertex="1" parent="1">
          <mxGeometry x="400" y="720" width="40" height="40" as="geometry" />
        </mxCell>
        <mxCell id="osnXjKtBxEo1k38KJEpU-19" value="0" style="rounded=0;whiteSpace=wrap;html=1;fillColor=#f5f5f5;strokeColor=#666666;fontColor=#333333;gradientColor=default;" vertex="1" parent="1">
          <mxGeometry x="522" y="720" width="40" height="40" as="geometry" />
        </mxCell>
        <mxCell id="osnXjKtBxEo1k38KJEpU-20" value="1" style="rounded=0;whiteSpace=wrap;html=1;" vertex="1" parent="1">
          <mxGeometry x="582" y="720" width="40" height="40" as="geometry" />
        </mxCell>
        <mxCell id="osnXjKtBxEo1k38KJEpU-21" value="2" style="rounded=0;whiteSpace=wrap;html=1;" vertex="1" parent="1">
          <mxGeometry x="643" y="720" width="40" height="40" as="geometry" />
        </mxCell>
        <mxCell id="osnXjKtBxEo1k38KJEpU-22" value="4" style="rounded=0;whiteSpace=wrap;html=1;" vertex="1" parent="1">
          <mxGeometry x="765" y="720" width="40" height="40" as="geometry" />
        </mxCell>
        <mxCell id="osnXjKtBxEo1k38KJEpU-23" value="3" style="rounded=0;whiteSpace=wrap;html=1;" vertex="1" parent="1">
          <mxGeometry x="704" y="720" width="40" height="40" as="geometry" />
        </mxCell>
        <mxCell id="osnXjKtBxEo1k38KJEpU-24" value="5" style="rounded=0;whiteSpace=wrap;html=1;" vertex="1" parent="1">
          <mxGeometry x="826" y="720" width="40" height="40" as="geometry" />
        </mxCell>
        <mxCell id="osnXjKtBxEo1k38KJEpU-25" value="6" style="rounded=0;whiteSpace=wrap;html=1;" vertex="1" parent="1">
          <mxGeometry x="886" y="720" width="40" height="40" as="geometry" />
        </mxCell>
        <mxCell id="osnXjKtBxEo1k38KJEpU-26" value="." style="rounded=0;whiteSpace=wrap;html=1;" vertex="1" parent="1">
          <mxGeometry x="947" y="720" width="40" height="40" as="geometry" />
        </mxCell>
        <mxCell id="osnXjKtBxEo1k38KJEpU-27" value="9" style="rounded=0;whiteSpace=wrap;html=1;" vertex="1" parent="1">
          <mxGeometry x="1069" y="720" width="40" height="40" as="geometry" />
        </mxCell>
        <mxCell id="osnXjKtBxEo1k38KJEpU-28" value="9" style="rounded=0;whiteSpace=wrap;html=1;" vertex="1" parent="1">
          <mxGeometry x="1008" y="720" width="40" height="40" as="geometry" />
        </mxCell>
        <mxCell id="osnXjKtBxEo1k38KJEpU-50" value="1" style="rounded=0;whiteSpace=wrap;html=1;" vertex="1" parent="1">
          <mxGeometry x="501" y="842" width="40" height="40" as="geometry" />
        </mxCell>
        <mxCell id="osnXjKtBxEo1k38KJEpU-51" value="2" style="rounded=0;whiteSpace=wrap;html=1;" vertex="1" parent="1">
          <mxGeometry x="562" y="842" width="40" height="40" as="geometry" />
        </mxCell>
        <mxCell id="osnXjKtBxEo1k38KJEpU-52" value="4" style="rounded=0;whiteSpace=wrap;html=1;" vertex="1" parent="1">
          <mxGeometry x="684" y="842" width="40" height="40" as="geometry" />
        </mxCell>
        <mxCell id="osnXjKtBxEo1k38KJEpU-53" value="3" style="rounded=0;whiteSpace=wrap;html=1;" vertex="1" parent="1">
          <mxGeometry x="623" y="842" width="40" height="40" as="geometry" />
        </mxCell>
        <mxCell id="osnXjKtBxEo1k38KJEpU-54" value="5" style="rounded=0;whiteSpace=wrap;html=1;" vertex="1" parent="1">
          <mxGeometry x="745" y="842" width="40" height="40" as="geometry" />
        </mxCell>
        <mxCell id="osnXjKtBxEo1k38KJEpU-55" value="6" style="rounded=0;whiteSpace=wrap;html=1;" vertex="1" parent="1">
          <mxGeometry x="805" y="842" width="40" height="40" as="geometry" />
        </mxCell>
        <mxCell id="osnXjKtBxEo1k38KJEpU-57" value="" style="curved=1;endArrow=classic;html=1;rounded=0;" edge="1" parent="1">
          <mxGeometry width="50" height="50" relative="1" as="geometry">
            <mxPoint x="820" y="772" as="sourcePoint" />
            <mxPoint x="667" y="827" as="targetPoint" />
            <Array as="points">
              <mxPoint x="746" y="799" />
              <mxPoint x="754" y="797" />
            </Array>
          </mxGeometry>
        </mxCell>
      </root>
    </mxGraphModel>
  </diagram>
</mxfile>
